<?xml version="1.0" encoding="UTF-8" standalone="no"?>
<!-- Created with Inkscape (http://www.inkscape.org/) -->

<svg
   width="64pt"
   height="64pt"
   viewBox="0 0 22.577778 22.577778"
   version="1.1"
   id="svg831"
   inkscape:version="1.1.1 (3bf5ae0d25, 2021-09-20)"
   sodipodi:docname="Export - Unblash - 64px.svg"
   inkscape:export-filename="C:\Users\User\Desktop\Done Januari 2k22\EX\11 - Cabinet.png"
   inkscape:export-xdpi="576"
   inkscape:export-ydpi="576"
   xmlns:inkscape="http://www.inkscape.org/namespaces/inkscape"
   xmlns:sodipodi="http://sodipodi.sourceforge.net/DTD/sodipodi-0.dtd"
   xmlns="http://www.w3.org/2000/svg"
   xmlns:svg="http://www.w3.org/2000/svg"
   xmlns:rdf="http://www.w3.org/1999/02/22-rdf-syntax-ns#"
   xmlns:cc="http://creativecommons.org/ns#"
   xmlns:dc="http://purl.org/dc/elements/1.1/">
  <defs
     id="defs825">
    <pattern
       id="EMFhbasepattern"
       patternUnits="userSpaceOnUse"
       width="6"
       height="6"
       x="0"
       y="0" />
    <pattern
       id="EMFhbasepattern-9"
       patternUnits="userSpaceOnUse"
       width="6"
       height="6"
       x="0"
       y="0" />
    <pattern
       id="EMFhbasepattern-0"
       patternUnits="userSpaceOnUse"
       width="6"
       height="6"
       x="0"
       y="0" />
    <pattern
       id="EMFhbasepattern-7"
       patternUnits="userSpaceOnUse"
       width="6"
       height="6"
       x="0"
       y="0" />
    <pattern
       id="EMFhbasepattern-2"
       patternUnits="userSpaceOnUse"
       width="6"
       height="6"
       x="0"
       y="0" />
    <pattern
       id="EMFhbasepattern-98"
       patternUnits="userSpaceOnUse"
       width="6"
       height="6"
       x="0"
       y="0" />
    <pattern
       id="EMFhbasepattern-6"
       patternUnits="userSpaceOnUse"
       width="6"
       height="6"
       x="0"
       y="0" />
    <pattern
       id="EMFhbasepattern-01"
       patternUnits="userSpaceOnUse"
       width="6"
       height="6"
       x="0"
       y="0" />
    <pattern
       id="EMFhbasepattern-07"
       patternUnits="userSpaceOnUse"
       width="6"
       height="6"
       x="0"
       y="0" />
    <pattern
       id="EMFhbasepattern-8"
       patternUnits="userSpaceOnUse"
       width="6"
       height="6"
       x="0"
       y="0" />
    <pattern
       id="EMFhbasepattern-4"
       patternUnits="userSpaceOnUse"
       width="6"
       height="6"
       x="0"
       y="0" />
    <pattern
       id="EMFhbasepattern-40"
       patternUnits="userSpaceOnUse"
       width="6"
       height="6"
       x="0"
       y="0" />
    <pattern
       id="EMFhbasepattern-08"
       patternUnits="userSpaceOnUse"
       width="6"
       height="6"
       x="0"
       y="0" />
    <pattern
       id="EMFhbasepattern-04"
       patternUnits="userSpaceOnUse"
       width="6"
       height="6"
       x="0"
       y="0" />
    <pattern
       id="EMFhbasepattern-014"
       patternUnits="userSpaceOnUse"
       width="6"
       height="6"
       x="0"
       y="0" />
    <pattern
       id="EMFhbasepattern-27"
       patternUnits="userSpaceOnUse"
       width="6"
       height="6"
       x="0"
       y="0" />
    <pattern
       id="EMFhbasepattern-09"
       patternUnits="userSpaceOnUse"
       width="6"
       height="6"
       x="0"
       y="0" />
    <pattern
       id="EMFhbasepattern-5"
       patternUnits="userSpaceOnUse"
       width="6"
       height="6"
       x="0"
       y="0" />
    <pattern
       id="EMFhbasepattern-018"
       patternUnits="userSpaceOnUse"
       width="6"
       height="6"
       x="0"
       y="0" />
  </defs>
  <sodipodi:namedview
     id="base"
     pagecolor="#ffffff"
     bordercolor="#666666"
     borderopacity="1.0"
     inkscape:pageopacity="0.0"
     inkscape:pageshadow="2"
     inkscape:zoom="4.5878906"
     inkscape:cx="-13.513836"
     inkscape:cy="48.279268"
     inkscape:document-units="pt"
     inkscape:current-layer="layer1"
     showgrid="false"
     units="pt"
     inkscape:window-width="1920"
     inkscape:window-height="1001"
     inkscape:window-x="-9"
     inkscape:window-y="41"
     inkscape:window-maximized="1"
     inkscape:pagecheckerboard="true"
     inkscape:showpageshadow="false"
     inkscape:object-paths="true"
     inkscape:snap-intersection-paths="true"
     inkscape:snap-smooth-nodes="true"
     inkscape:snap-midpoints="true"
     showguides="true"
     inkscape:snap-bbox="true"
     inkscape:bbox-nodes="true"
     inkscape:snap-nodes="false"
     inkscape:snap-global="true">
    <inkscape:grid
       type="xygrid"
       id="grid1378" />
    <sodipodi:guide
       position="0.97013831,21.607643"
       orientation="78.000048,0"
       id="guide1380"
       inkscape:locked="false" />
    <sodipodi:guide
       position="0.97013831,0.97013129"
       orientation="0,78.000005"
       id="guide1382"
       inkscape:locked="false" />
    <sodipodi:guide
       position="21.607639,0.97013129"
       orientation="-78.000048,0"
       id="guide1384"
       inkscape:locked="false" />
    <sodipodi:guide
       position="21.607639,21.607643"
       orientation="0,-78.000005"
       id="guide1386"
       inkscape:locked="false" />
  </sodipodi:namedview>
  <metadata
     id="metadata828">
    <rdf:RDF>
      <cc:Work
         rdf:about="">
        <dc:format>image/svg+xml</dc:format>
        <dc:type
           rdf:resource="http://purl.org/dc/dcmitype/StillImage" />
      </cc:Work>
    </rdf:RDF>
  </metadata>
  <g
     inkscape:label="Icon"
     inkscape:groupmode="layer"
     id="layer1"
     transform="translate(0,-274.42223)">
    <g
       id="g1293"
       style="display:inline;stroke-width:0.782219"
       transform="matrix(1.2784151,0,0,1.2784151,39.460203,-44.148339)">
      <path
         id="path132470"
         style="color:#000000;fill:#ebc8b6;stroke-width:2.95642;stroke-linecap:round;stroke-linejoin:round;-inkscape-stroke:none"
         d="m -103.28711,-61.064453 a 1.0001006,1.0001006 0 0 0 -0.99609,0.996094 v 6.001953 a 1.0001006,1.0001006 0 0 0 0.99609,1.003906 h 4.000001 a 1.0001006,1.0001006 0 0 0 0.833984,-0.449219 l 4.001953,-6.001953 a 1.0001006,1.0001006 0 0 0 -0.833984,-1.550781 z m 32.000001,0 a 1.0001006,1.0001006 0 0 0 -0.833985,1.550781 l 4.001953,6.001953 a 1.0001006,1.0001006 0 0 0 0.833985,0.449219 h 4 a 1.0001006,1.0001006 0 0 0 0.996094,-1.003906 v -6.001953 a 1.0001006,1.0001006 0 0 0 -0.996094,-0.996094 z"
         transform="matrix(0.26458334,0,0,0.26458334,0,280.06666)" />
      <path
         style="color:#000000;fill:#dc1c4b;stroke-width:0.782219;stroke-linecap:round;stroke-linejoin:round;-inkscape-stroke:none"
         d="m -22.037109,250.03516 c -0.902719,0 -1.804469,0.13688 -2.675782,0.41015 l -1.554687,0.48633 c -1.614834,0.50646 -2.615106,2.12606 -2.345703,3.79688 l 0.492187,3.04687 -0.002,2.64258 a 0.26460996,0.26460996 0 0 0 0.01172,0.0762 l 0.632812,2.14453 a 0.26460996,0.26460996 0 0 0 0.265625,0.18945 l 4.738282,-0.20507 a 0.26460996,0.26460996 0 0 0 0.002,0 l 4.248047,-0.22461 a 0.26460996,0.26460996 0 0 0 0.09766,-0.0234 l 2.615234,-1.22656 a 0.26460996,0.26460996 0 0 0 0.146485,-0.29102 l -0.386719,-1.91601 -0.195313,-1.1875 0.488282,-3.02539 c 0.269402,-1.67082 -0.73087,-3.29042 -2.345703,-3.79688 l -1.554688,-0.48633 c -0.871312,-0.27327 -1.775015,-0.41015 -2.677734,-0.41015 z"
         id="path17656" />
      <path
         id="path132472"
         style="color:#000000;fill:#d1b3a2;fill-opacity:1;stroke-width:2.95642;stroke-linecap:round;stroke-linejoin:round;-inkscape-stroke:none"
         d="m -103.28711,-61.064453 a 1.0001006,1.0001006 0 0 0 -0.99609,0.996094 v 3.005859 h 8.197262 l 1.634766,-2.451172 a 1.0001006,1.0001006 0 0 0 -0.833984,-1.550781 z m 32.000001,0 a 1.0001006,1.0001006 0 0 0 -0.833985,1.550781 l 1.634766,2.451172 h 8.197266 v -3.005859 a 1.0001006,1.0001006 0 0 0 -0.996094,-0.996094 z"
         transform="matrix(0.26458334,0,0,0.26458334,0,280.06666)" />
      <path
         style="color:#000000;fill:#b01d47;stroke-width:2.95642;stroke-linecap:round;stroke-linejoin:round;-inkscape-stroke:none"
         d="m -104.51367,-85.357422 c -3.39692,0 -6.40932,1.70344 -8.21485,4.302734 -0.71857,1.034495 -0.96454,2.333487 -1.04101,3.632813 -0.0765,1.299326 0.0417,2.594777 0.28125,3.630859 l 2.55273,11.029297 c 0.49934,2.159244 2.43417,3.699219 4.65039,3.699219 h 45.998051 c 2.216228,0 4.151054,-1.539975 4.65039,-3.699219 l 2.552735,-11.029297 c 0.239584,-1.036082 0.357709,-2.331533 0.28125,-3.630859 -0.0765,-1.299326 -0.322411,-2.604177 -1.041016,-3.638672 -1.805529,-2.599257 -4.817959,-4.296875 -8.214844,-4.296875 -5.510982,0 -10.003887,4.490986 -10.003906,10.001953 0,0.714929 0.07798,1.412602 0.220703,2.085938 -3.751774,-0.700596 -7.523204,-1.067318 -11.308594,-1.082031 -3.842062,-0.01579 -7.700384,0.331228 -11.574218,1.054687 0.138957,-0.664848 0.214843,-1.353375 0.214843,-2.058594 -2.2e-5,-5.510967 -4.49292,-10.001953 -10.003904,-10.001953 z"
         transform="matrix(0.26458334,0,0,0.26458334,0,280.06666)"
         id="path17848" />
      <path
         id="path21691"
         style="color:#000000;fill:#b01d47;fill-opacity:1;stroke-width:2.95642;stroke-linecap:round;stroke-linejoin:round;-inkscape-stroke:none"
         d="m -60.273317,-84.332137 1.845704,-11.433594 c 0.65699,-4.381309 -0.913752,-8.794119 -4.035282,-11.568389 -1.482217,-1.39612 -3.21208,-2.15376 -4.830069,-2.78332 -2.137598,-0.66338 -4.404465,-1.38762 -6.496093,-2.02539 -3.578101,-1.16774 -7.268005,-1.49686 -10.912631,-1.41933 -2.052353,-0.058 -5.819176,0.72 -8.700656,1.60705 l -5.876953,1.83789 c -5.762283,1.80722 -9.450603,7.36511 -8.988283,13.294924 0.40248,-5.143064 3.88015,-9.692854 8.988283,-11.294924 l 5.876953,-1.83789 c 3.293152,-1.03283 6.70143,-1.54883 10.113282,-1.54883 3.411847,0 6.825992,0.516 10.11914,1.54883 l 5.876953,1.83789 c 1.563326,0.49031 2.972975,1.25741 4.189453,2.23242 2.214015,2.76323 3.274213,6.407684 2.675782,10.119145 l -1.845704,11.433594 z"
         transform="matrix(0.26458334,0,0,0.26458334,0,280.06666)"
         sodipodi:nodetypes="cccccccccccscccccc" />
      <path
         id="path30375"
         style="color:#000000;fill:#801231;stroke-width:2.95642;stroke-linecap:round;stroke-linejoin:round;-inkscape-stroke:none"
         d="m -104.2168,-81.068359 c -1.85924,0 -3.53121,0.863295 -4.62109,2.207031 -1.04237,1.597085 -0.97024,3.315859 -0.74609,5.05664 l 1.75586,8.783204 c 0.10895,0.539692 0.63366,0.889791 1.17382,0.783203 0.54287,-0.105263 0.89725,-0.631144 0.79102,-1.173828 l -1.75781,-8.785157 c -0.23008,-1.238477 -0.12266,-2.259402 0.33203,-3.402343 0.7236,-0.892158 1.82207,-1.46652 3.06445,-1.46875 1.72008,0.0076 2.56347,0.96093 3.07813,2.52539 0.51465,1.56446 0.44966,3.685154 -0.0527,5.269531 -0.16659,0.528692 0.12865,1.09202 0.6582,1.25586 0.52809,0.165324 1.090046,-0.129658 1.253911,-0.658203 0.633399,-1.997518 0.729749,-4.414292 0.04492,-6.496094 -0.684835,-2.081802 -2.401791,-3.887451 -4.974611,-3.896484 z m 41.861331,0 c -2.572815,0.0076 -4.289774,1.814682 -4.974609,3.896484 -0.684835,2.081802 -0.588485,4.498576 0.04492,6.496094 0.163865,0.528542 0.725817,0.823523 1.253906,0.658203 0.529554,-0.163839 0.824797,-0.727167 0.658203,-1.25586 -0.502409,-1.584377 -0.567393,-3.705071 -0.05273,-5.269531 0.513913,-1.56223 1.355204,-2.516622 3.070312,-2.52539 1.245396,0 2.34725,0.574854 3.072266,1.46875 0.575793,1.097691 0.466001,2.194405 0.332031,3.402343 l -1.757812,8.785157 c -0.106593,0.540166 0.243507,1.06488 0.783203,1.173828 0.542853,0.11145 1.072819,-0.239817 1.18164,-0.783203 l 1.75586,-8.783204 c 0.242353,-1.721854 0.259738,-3.773801 -0.746094,-5.05664 -1.08988,-1.343736 -2.761846,-2.207031 -4.621094,-2.207031 z"
         transform="matrix(0.26458334,0,0,0.26458334,0,280.06666)"
         sodipodi:nodetypes="sccccccccscccssssscccsccccccccss" />
      <path
         id="path31971"
         style="color:#000000;fill:#801231;stroke-width:2.95642;stroke-linecap:round;stroke-linejoin:round;-inkscape-stroke:none"
         d="m -94.703125,-101.48047 a 1.0000006,1.0000006 0 0 0 -0.707031,0.29492 1.0000006,1.0000006 0 0 0 0,1.410159 l 0.710937,0.708985 -0.710937,0.708984 a 1.0000006,1.0000006 0 0 0 0,1.410156 1.0000006,1.0000006 0 0 0 1.416015,0 l 0.708985,-0.708984 0.708984,0.708984 a 1.0000006,1.0000006 0 0 0 1.410156,0 1.0000006,1.0000006 0 0 0 0,-1.410156 l -0.708984,-0.708984 0.708984,-0.708985 a 1.0000006,1.0000006 0 0 0 0,-1.410159 1.0000006,1.0000006 0 0 0 -0.708984,-0.29492 1.0000006,1.0000006 0 0 0 -0.701172,0.29492 l -0.708984,0.70899 -0.708985,-0.70899 a 1.0000006,1.0000006 0 0 0 -0.708984,-0.29492 z m 20.005859,0 a 1.0000006,1.0000006 0 0 0 -0.708984,0.29492 1.0000006,1.0000006 0 0 0 0,1.410159 l 0.708984,0.708985 -0.708984,0.708984 a 1.0000006,1.0000006 0 0 0 0,1.410156 1.0000006,1.0000006 0 0 0 1.410156,0 l 0.708985,-0.708984 0.708984,0.708984 a 1.0000006,1.0000006 0 0 0 1.416016,0 1.0000006,1.0000006 0 0 0 0,-1.410156 l -0.710938,-0.708984 0.710938,-0.708985 a 1.0000006,1.0000006 0 0 0 0,-1.408199 1.0000006,1.0000006 0 0 0 -1.416016,0 l -0.707031,0.70703 -0.710938,-0.70899 a 1.0000006,1.0000006 0 0 0 -0.701172,-0.29492 z m -10.001953,6.001954 a 1.0000006,1.0000006 0 0 0 -0.708984,0.294922 1.0000006,1.0000006 0 0 0 0,1.410156 l 0.708984,0.708985 -0.708984,0.708984 a 1.0000006,1.0000006 0 0 0 0,1.410157 1.0000006,1.0000006 0 0 0 1.417969,0 l 0.705078,-0.705079 0.703125,0.705079 a 1.0000006,1.0000006 0 0 0 1.417969,0 1.0000006,1.0000006 0 0 0 0,-1.410157 l -0.708985,-0.708984 0.708985,-0.708985 a 1.0000006,1.0000006 0 0 0 0,-1.410156 1.0000006,1.0000006 0 0 0 -0.708985,-0.294922 1.0000006,1.0000006 0 0 0 -0.708984,0.294922 l -0.703125,0.705078 -0.705078,-0.705078 a 1.0000006,1.0000006 0 0 0 -0.708985,-0.294922 z m -8.001953,8.001954 a 1.0000006,1.0000006 0 0 0 -0.708984,0.289062 1.0000006,1.0000006 0 0 0 0,1.416016 l 0.707031,0.705078 -0.707031,0.705078 a 1.0000006,1.0000006 0 0 0 0,1.417969 1.0000006,1.0000006 0 0 0 1.417968,0 l 0.707032,-0.707032 0.708984,0.707032 a 1.0000006,1.0000006 0 0 0 1.410156,0 1.0000006,1.0000006 0 0 0 0,-1.417969 l -0.705078,-0.705078 0.705078,-0.705078 a 1.0000006,1.0000006 0 0 0 0,-1.416016 1.0000006,1.0000006 0 0 0 -0.708984,-0.289062 1.0000006,1.0000006 0 0 0 -0.701172,0.289062 l -0.708984,0.707031 -0.707032,-0.707031 a 1.0000006,1.0000006 0 0 0 -0.708984,-0.289062 z m 16.003906,0 a 1.0000006,1.0000006 0 0 0 -0.708984,0.289062 1.0000006,1.0000006 0 0 0 0,1.416016 l 0.705078,0.705078 -0.705078,0.705078 a 1.0000006,1.0000006 0 0 0 0,1.417969 1.0000006,1.0000006 0 0 0 1.410156,0 l 0.708985,-0.707032 0.707031,0.707032 a 1.0000006,1.0000006 0 0 0 1.417969,0 1.0000006,1.0000006 0 0 0 0,-1.417969 l -0.707032,-0.705078 0.707032,-0.705078 a 1.0000006,1.0000006 0 0 0 0,-1.416016 1.0000006,1.0000006 0 0 0 -0.708985,-0.289062 1.0000006,1.0000006 0 0 0 -0.708984,0.289062 l -0.707031,0.707031 -0.708985,-0.707031 a 1.0000006,1.0000006 0 0 0 -0.701172,-0.289062 z"
         transform="matrix(0.26458334,0,0,0.26458334,0,280.06666)" />
      <path
         style="color:#000000;fill:#801231;stroke-width:0.782219;stroke-linecap:round;stroke-linejoin:round;-inkscape-stroke:none"
         d="m -22.037109,251.08203 c -0.719595,0 -1.438258,0.10834 -2.132813,0.32617 l -1.228515,0.38672 c -1.303089,0.4087 -2.111922,1.71619 -1.894532,3.06445 l 0.195313,1.2129 a 0.2645835,0.2645835 0 0 0 0.304687,0.21875 0.2645835,0.2645835 0 0 0 0.21875,-0.30274 l -0.195312,-1.21289 c -0.176163,-1.09257 0.473334,-2.14538 1.529297,-2.47656 l 1.228515,-0.38477 c 1.286069,-0.40335 2.665103,-0.40335 3.951172,0 l 1.228516,0.38477 c 1.055963,0.33118 1.70546,1.38399 1.529297,2.47656 l -0.195313,1.21289 a 0.2645835,0.2645835 0 0 0 0.21875,0.30274 0.2645835,0.2645835 0 0 0 0.304688,-0.21875 l 0.195312,-1.2129 c 0.217391,-1.34826 -0.591442,-2.65575 -1.894531,-3.06445 l -1.228516,-0.38672 c -0.694555,-0.21783 -1.41517,-0.32617 -2.134765,-0.32617 z"
         id="path35492" />
      <path
         id="path27233"
         style="color:#000000;fill:#801231;fill-opacity:1;stroke-width:0.782219;stroke-linecap:round;stroke-linejoin:round;-inkscape-stroke:none"
         d="m -27.652576,257.48251 c -0.898768,0 -1.695799,0.4507 -2.173512,1.13843 -0.190122,0.27371 -0.255202,0.6174 -0.275434,0.96118 -0.0096,0.16201 -0.0072,0.32353 0.0041,0.47801 0.09793,-1.23679 1.467129,-2.02996 2.444814,-2.04846 1.368744,0 2.49988,1.04732 2.63343,2.38177 0.0088,-0.087 0.01344,-0.17533 0.01344,-0.26458 -5e-6,-1.45812 -1.188752,-2.64635 -2.646866,-2.64635 h 1.4e-5 z m 13.681822,2.09961 c -0.02024,-0.34378 -0.0853,-0.68902 -0.275435,-0.96273 -0.477713,-0.68772 -1.274752,-1.13688 -2.173511,-1.13688 h 1.5e-5 1.5e-5 c -1.458114,0 -2.646862,1.18823 -2.646867,2.64635 0,0.0889 0.0047,0.17681 0.01344,0.26355 0.134026,-1.33397 1.265036,-2.38074 2.633431,-2.38074 0.898759,0 1.695798,0.44917 2.173511,1.13689 z m -11.089766,1.09103 c -3.96e-4,0.18458 -0.02045,0.36488 -0.05684,0.53898 2.097802,-0.38152 4.211197,-0.35037 6.164928,0.008 -0.03693,-0.17423 -0.05699,-0.35471 -0.05788,-0.5395 -2.054725,-0.37012 -4.139282,-0.35059 -6.050208,-0.007 z"
         sodipodi:nodetypes="csccccsccccccccscsccccccc" />
      <path
         id="path414452"
         style="color:#000000;fill:#801231;fill-opacity:1;stroke-width:0.782219;stroke-linecap:round;stroke-linejoin:round;-inkscape-stroke:none"
         d="m -16.683737,257.49591 c 1.188608,0.24562 2.110027,0.9356 2.183847,2.08618 -0.01713,1.30764 -0.450046,2.58359 -0.749831,3.87883 -0.132116,0.5713 -0.644038,0.97876 -1.230415,0.97876 h 0.529166 c 0.586377,0 1.0983,-0.40746 1.230416,-0.97876 0.179586,-1.00263 0.815126,-2.65179 0.749821,-3.87883 -0.07677,-1.26467 -1.443807,-2.08065 -2.448946,-2.09961 z"
         sodipodi:nodetypes="ccccscccc" />
    </g>
  </g>
</svg>
