<?xml version="1.0" encoding="iso-8859-1"?>
<!-- Generator: Adobe Illustrator 19.1.0, SVG Export Plug-In . SVG Version: 6.00 Build 0)  -->
<svg version="1.1" id="Capa_1" xmlns="http://www.w3.org/2000/svg" xmlns:xlink="http://www.w3.org/1999/xlink" x="0px" y="0px"
	 viewBox="0 0 63.544 63.544" style="enable-background:new 0 0 63.544 63.544;" xml:space="preserve">
<g>
	<g id="group-22svg">
		<path id="path-1_14_" style="fill:#EDC951;" d="M51.272,40.027h-32v-2.071c0-2.211,1.676-3.933,3.885-3.933h24
			c2.209,0,4.115,1.722,4.115,3.933V40.027z"/>
		<path id="path-2_14_" style="fill:#E56A77;" d="M35.214,34.023h0.029c-7.18,0-12.971-5.894-12.971-13.079V6.934
			c0-2.21,1.676-3.932,3.885-3.932h18c2.209,0,4.115,1.722,4.115,3.932v14.01C48.272,28.129,42.394,34.023,35.214,34.023z"/>
		<path id="path-3_14_" style="fill:#E56A77;" d="M38.272,46.032h-6v-6.005h6V46.032z"/>
		<path id="path-4_14_" d="M47.772,40.027h-32c-0.828,0-1.5-0.672-1.5-1.501v-1.571c0-3.05,2.86-5.934,5.885-5.934h24
			c3.202,0,5.115,3.017,5.115,5.934v1.571C49.272,39.355,48.6,40.027,47.772,40.027z M17.272,37.025h29v-0.07
			c0-1.41-0.809-2.932-2.115-2.932h-24c-1.375,0-2.885,1.535-2.885,2.932V37.025z"/>
		<path id="path-5_14_" d="M31.964,34.023h-0.096c-8.185,0-14.596-6.185-14.596-14.08V5.934c0-3.05,2.86-5.934,5.885-5.934h18
			c3.202,0,5.115,3.016,5.115,5.934v14.009C46.272,27.838,39.988,34.023,31.964,34.023z M23.157,3.002
			c-1.375,0-2.885,1.534-2.885,2.932v14.009c0,6.213,5.094,11.078,11.596,11.078h0.096c6.447,0,11.308-4.762,11.308-11.078V5.934
			c0-1.411-0.809-2.932-2.115-2.932H23.157z"/>
		<path id="path-6_13_" d="M15.95,40.493c-0.078,0-0.158-0.007-0.238-0.02c-3.013-0.079-5.44-2.525-5.44-5.519v-4.933
			c0-0.829,0.672-1.502,1.5-1.502s1.5,0.673,1.5,1.502v4.933c0,1.365,1.186,2.519,2.591,2.519c0.096,0,0.191,0.009,0.285,0.027
			c0.813,0.158,1.391,0.954,1.233,1.768C17.242,39.986,16.647,40.493,15.95,40.493z"/>
		<path id="path-7_13_" d="M47.95,40.493c-0.092,0-0.186-0.009-0.282-0.028l-0.09-0.017c-0.759-0.147-1.283-0.848-1.208-1.618
			c0.074-0.77,0.719-1.357,1.493-1.357c1.35,0,2.409-1.106,2.409-2.519v-4.933c0-0.829,0.672-1.502,1.5-1.502s1.5,0.673,1.5,1.502
			v4.933c0,2.966-2.18,5.316-5.029,5.508C48.148,40.482,48.05,40.493,47.95,40.493z"/>
		<path id="path-8_12_" d="M32.136,16.562c-0.968,0-1.877-0.377-2.56-1.061c-0.685-0.684-1.062-1.594-1.062-2.563
			c0-0.968,0.377-1.878,1.063-2.563c1.365-1.365,3.752-1.368,5.119,0c1.413,1.414,1.413,3.713,0.001,5.126
			C34.012,16.186,33.103,16.562,32.136,16.562z M32.136,12.317c-0.096,0-0.281,0.023-0.439,0.182
			c-0.159,0.159-0.183,0.344-0.183,0.439c0,0.096,0.024,0.281,0.182,0.439c0.159,0.159,0.344,0.183,0.44,0.183
			c0.096,0,0.281-0.024,0.441-0.183c0.241-0.241,0.241-0.636-0.001-0.878C32.417,12.34,32.232,12.317,32.136,12.317z"/>
		<path id="path-9_12_" d="M35.772,46.032h-7c-0.828,0-1.5-0.673-1.5-1.501v-6.005c0-0.828,0.672-1.501,1.5-1.501h7
			c0.828,0,1.5,0.673,1.5,1.501v6.005C37.272,45.359,36.6,46.032,35.772,46.032z M30.272,43.029h4v-3.002h-4V43.029z"/>
		<path id="path-10_12_" d="M50.772,63.544c-0.828,0-1.5-0.673-1.5-1.501v-2.676l-16.956-5.421
			c-0.622-0.198-1.044-0.777-1.044-1.429v-7.486c0-0.829,0.672-1.501,1.5-1.501s1.5,0.672,1.5,1.501v6.389l16.956,5.421
			c0.622,0.198,1.044,0.777,1.044,1.429v3.773C52.272,62.871,51.6,63.544,50.772,63.544z"/>
		<path id="path-11_9_" d="M14.772,63.544c-0.828,0-1.5-0.673-1.5-1.501V58.27c0-0.652,0.422-1.231,1.044-1.429l16.956-5.421v-6.389
			c0-0.829,0.672-1.501,1.5-1.501s1.5,0.672,1.5,1.501v7.486c0,0.652-0.422,1.231-1.044,1.429l-16.956,5.421v2.676
			C16.272,62.871,15.6,63.544,14.772,63.544z"/>
	</g>
</g>
<g>
</g>
<g>
</g>
<g>
</g>
<g>
</g>
<g>
</g>
<g>
</g>
<g>
</g>
<g>
</g>
<g>
</g>
<g>
</g>
<g>
</g>
<g>
</g>
<g>
</g>
<g>
</g>
<g>
</g>
</svg>
